<?xml version="1.0" encoding="UTF-8" standalone="no"?>
<svg
   viewBox="0 0 114.22841 136.67125"
   version="1.1"
   id="svg35"
   sodipodi:docname="sd_fire.svg"
   width="114.22841"
   height="136.67125"
   inkscape:version="1.2 (dc2aedaf03, 2022-05-15)"
   xmlns:inkscape="http://www.inkscape.org/namespaces/inkscape"
   xmlns:sodipodi="http://sodipodi.sourceforge.net/DTD/sodipodi-0.dtd"
   xmlns="http://www.w3.org/2000/svg"
   xmlns:svg="http://www.w3.org/2000/svg"
   xmlns:rdf="http://www.w3.org/1999/02/22-rdf-syntax-ns#"
   xmlns:cc="http://creativecommons.org/ns#"
   xmlns:dc="http://purl.org/dc/elements/1.1/">
  <sodipodi:namedview
     id="namedview37"
     pagecolor="#ffffff"
     bordercolor="#000000"
     borderopacity="0.25"
     inkscape:showpageshadow="2"
     inkscape:pageopacity="0.0"
     inkscape:pagecheckerboard="0"
     inkscape:deskcolor="#d1d1d1"
     showgrid="false"
     inkscape:zoom="1.3771057"
     inkscape:cx="-172.10008"
     inkscape:cy="151.76758"
     inkscape:window-width="1920"
     inkscape:window-height="1011"
     inkscape:window-x="0"
     inkscape:window-y="0"
     inkscape:window-maximized="1"
     inkscape:current-layer="Layer_2" />
  <defs
     id="defs11">
    <style
       id="style9">.cls-1{fill:#347ebf;}.cls-2{fill:#283f60;}.cls-3{fill:#273e5f;}</style>
  </defs>
  <title
     id="title13">Dayspring-logo-color</title>
  <g
     id="Layer_2"
     data-name="Layer 2"
     transform="translate(-664.08957,-0.0400396)">
    <g
       id="Layer_1-2"
       data-name="Layer 1"
       transform="translate(3.0124321)">
      <g
         id="Layer_2-2"
         data-name="Layer 2">
        <g
           id="Layer_1-2-2"
           data-name="Layer 1-2">
          <path
             class="cls-1"
             d="m 728.76,135 c 2.31,-2.81 4.49,-5.21 6.39,-7.81 6,-8.29 6.66,-17.27 2.88,-26.59 C 734.17,91 727.72,83.18 721.5,75.17 715.28,67.16 708.77,59.34 704.69,50 699.13,37.17 701.27,26.08 711.2,16.25 720.68,6.87 732.43,2.25 745.32,0.1 a 7.32,7.32 0 0 1 1.87,0 c 0.25,0 0.49,0.31 0.79,0.51 0.17,1.69 -1.33,2.33 -2.23,3.28 -9.65,10.15 -11.52,21.23 -5.6,33.9 4.94,10.57 12.76,19.17 19.7,28.37 4.69,6.23 9.42,12.42 12.46,19.71 5.48,13.12 3.52,23.76 -6.53,33.74 -9.2,9.15 -20.72,13.62 -33.23,15.94 a 10.76,10.76 0 0 1 -2.34,0.07 7.12,7.12 0 0 1 -1.45,-0.62 z"
             id="path15" />
          <path
             class="cls-2"
             d="m 717.65,118.36 c 0,4.36 -0.17,8.73 0.05,13.09 0.17,3.33 -1,4.69 -4.41,5 -30.62,3.24 -56.53,-24.15 -51.61,-54.51 2.29,-14.21 9.64,-25 21.47,-33 2.48,-1.69 4.15,-2 4.92,1.51 2,9.23 7.14,16.86 12.75,24.19 1.73,2.26 2,3.65 -0.21,5.86 a 13.39,13.39 0 0 0 -2.11,16.68 c 3.08,4.89 8.88,7 15.22,5 3.57,-1.16 4,0.15 4,3.14 -0.16,4.31 -0.07,8.68 -0.07,13.04 z"
             id="path17" />
        </g>
      </g>
    </g>
  </g>
  <metadata
     id="metadata197">
    <rdf:RDF>
      <cc:Work
         rdf:about="">
        <dc:title>Dayspring-logo-color</dc:title>
      </cc:Work>
    </rdf:RDF>
  </metadata>
</svg>
